PathFileType	4	(X/Y/Z)	RBDS04\RBDS04runT35.trc
DataRate	CameraRate	NumFrames	NumMarkers	Units	OrigDataRate	OrigDataStartFrame	OrigNumFrames
150.000000	150.000000	5	33	mm	150.000000	2812	4500
Frame#	Time	L.ASIS			L.Heel.Bottom			L.Heel.Lateral			L.Heel.Top			L.Iliac.Crest			L.MT1			L.MT5			L.PSIS			L.Shank.Bottom.Lateral			L.Shank.Bottom.Medial			L.Shank.Top.Lateral			L.Shank.Top.Medial			L.Thigh.Bottom.Lateral			L.Thigh.Bottom.Medial			L.Thigh.Top.Lateral			L.Thigh.Top.Medial			R.ASIS			R.ASY			R.Heel.Bottom			R.Heel.Lateral			R.Heel.Top			R.Iliac.Crest			R.MT1			R.MT5			R.PSIS			R.Shank.Bottom.Lateral			R.Shank.Bottom.Medial			R.Shank.Top.Lateral			R.Shank.Top.Medial			R.Thigh.Bottom.Lateral			R.Thigh.Bottom.Medial			R.Thigh.Top.Lateral			R.Thigh.Top.Medial			
		X1	Y1	Z1	X2	Y2	Z2	X3	Y3	Z3	X4	Y4	Z4	X5	Y5	Z5	X6	Y6	Z6	X7	Y7	Z7	X8	Y8	Z8	X9	Y9	Z9	X10	Y10	Z10	X11	Y11	Z11	X12	Y12	Z12	X13	Y13	Z13	X14	Y14	Z14	X15	Y15	Z15	X16	Y16	Z16	X17	Y17	Z17	X18	Y18	Z18	X19	Y19	Z19	X20	Y20	Z20	X21	Y21	Z21	X22	Y22	Z22	X23	Y23	Z23	X24	Y24	Z24	X25	Y25	Z25	X26	Y26	Z26	X27	Y27	Z27	X28	Y28	Z28	X29	Y29	Z29	X30	Y30	Z30	X31	Y31	Z31	X32	Y32	Z32	X33	Y33	Z33	

2813	18.74666666666667	2212.816092754232	961.055715123504	914.8715369756196	2233.766629115065	29.12718871663163	926.0693091120003	2266.115282061572	46.28659616993685	884.612274317738	2240.018796944265	75.48511376937704	922.3077786067008	2147.69367333393	1022.246849077693	862.1171976878161	2442.298446009483	71.3937522800793	968.5582468403145	2418.467376889721	46.54958425150186	871.4987631527034	2049.555152295316	991.9480761039514	969.1653434515117	2290.970683233477	176.4584714448671	870.2075713607072	2247.297724126927	169.7794189072241	895.2996039474397	2275.532921110428	254.0544284714471	855.6454178155484	2229.906127696443	251.5059480379247	883.5666095866867	2235.830477625166	612.2524147787819	837.0328265326764	2176.818659491963	588.764589631616	872.6258244311017	2186.369295793839	710.0752973872882	824.212758953467	2130.446552448781	688.2748018055645	857.8115380597222	2212.099780459379	941.9651563202931	1102.499996922646	1684.127934932344	304.9766136844747	1030.082384004916	1639.336866153696	478.7302054670908	1022.070288308379	1646.396597383802	443.8738264189601	1062.88992469902	1682.834220033997	466.6856027046609	1029.564269071318	2170.595307290167	1014.261913959581	1140.266043717233	1648.945186836682	268.7507192687831	984.4197250176038	1622.621326429802	293.2662281593143	1075.642375571415	2055.465687713794	990.0503847798664	1055.935782289887	1762.857106925069	430.0384991171227	1084.140668825659	1762.421781592506	465.5461039924695	1043.170216737489	1838.240424518921	454.4280472189071	1102.108350974322	1837.266718173476	487.8471984051876	1060.192176196625	2093.991575324012	565.5069799695323	1144.202919287809	2042.580304069957	572.2125243738008	1091.260362706578	2086.429738033421	673.9105673828508	1163.134615212559	2034.117735321164	679.3250322833737	1115.586023316835	
2814	18.75333333333333	2211.020896969857	956.7952528619883	914.347094891654	2212.892013667262	29.07172486523129	927.631027927108	2245.62600937483	46.29200462994586	886.5600613732743	2220.79240770429	75.39034011435169	925.2664079606639	2146.018386556003	1016.30263054227	861.2761629352381	2423.299750490451	64.07625360138579	970.7875505405065	2398.427435735397	42.99154976376471	872.8497028805177	2047.325658918648	986.7500516439263	969.3702656961186	2277.569291382237	172.3412251969802	873.4690984018359	2233.430120797868	167.8269210064684	898.0078024323869	2265.732095762658	250.3438338576701	858.2385642644704	2219.875012091521	250.0535822255558	885.7077910479117	2235.622334781162	609.2325906861759	837.6595843539516	2176.356856882547	585.3043022479239	872.6300887978418	2185.445397900426	706.5850431232365	824.1361831389024	2129.2916898831	684.3468470262461	857.1242721627733	2210.878030310397	936.5032724300245	1102.071611739766	1692.226037855288	310.9650837577095	1032.556005949156	1654.248745436769	486.4123673246617	1019.58392799502	1660.011062419292	452.446509113384	1061.497760799838	1697.248308345468	472.7950940311353	1027.433971153815	2169.106114191475	1007.835237500444	1140.688390998614	1655.310416112393	274.6949905912427	988.3936079255129	1630.386036557401	303.1261040268113	1078.860609399863	2053.343269586861	983.9643669050688	1055.793270333059	1775.222152688901	433.4729416715091	1084.051054115673	1776.114119402849	468.8066250901246	1042.993508833848	1851.43112055989	455.3207994685083	1101.97464159885	1851.680340312724	488.4370435368954	1059.831498161228	2102.492392398752	558.2207536475534	1144.613428558037	2051.007420898242	563.0623909107517	1091.538404752745	2091.663207374403	666.4886637097242	1163.029266926015	2039.518624335737	670.0527170780396	1115.157909369616	
2815	18.76	2208.877796159665	952.5403676411825	913.6644696732382	2190.69139618747	29.19064304964304	928.9823222305274	2223.778323173832	46.6639038392693	888.3532930059823	2200.016841645065	75.47718620583177	928.0655887910418	2143.90333246533	1010.16500131897	860.3889381745043	2402.700098481387	57.82709165815049	972.9118233627017	2376.937211744538	40.4995194085388	874.1180190872705	2044.882231159695	981.7129419475641	969.7364958763621	2262.948792147849	168.7513037524312	876.8305874004856	2218.347646039917	166.5988967460587	900.7026766143055	2255.072453848205	247.0865318799079	860.9365130468647	2209.004707678223	249.2483396725582	887.8379998987373	2235.081732999767	606.2441961241425	838.1840541398526	2175.683387596438	581.9260463098301	872.7673235773842	2184.170033770225	703.127037804404	823.9697338795768	2127.875432781929	680.4904374174644	856.5178974160234	2209.468400605202	930.9102174358558	1101.56087379012	1701.800269375277	316.2281209941583	1035.090037050551	1669.601644868212	492.8252882293039	1017.195819388649	1674.395205273892	459.8730370245884	1060.198273156184	1712.124561633602	477.9116784692181	1025.335186976335	2167.445124553081	1001.174431757975	1141.160133491394	1663.273778856671	279.7713635424865	992.5228355232895	1639.953197068017	311.9417825773942	1082.284461354618	2051.038321644869	977.9483751868721	1055.728406326034	1788.439654505416	436.2217895161085	1084.029507131382	1790.5191801408	471.487636391766	1043.006706024892	1865.362495630136	455.7535187760752	1101.963241986954	1866.686034947217	488.6285950006572	1059.678718465487	2111.439241543615	551.2725496432968	1144.984258092493	2059.758736068347	554.1531691326035	1091.968402728444	2097.162573813399	659.2664258370835	1162.921701297074	2045.097889094015	660.8986574836092	1114.905877534643	
2816	18.76666666666667	2206.426483219724	948.3922203057278	912.8278776736737	2167.621079491827	29.4281995466885	930.0866961383548	2201.011744510513	47.29022747510914	889.9136779853659	2178.098494702328	75.68451932903329	930.5607877890961	2141.320195231133	1004.006809272249	859.4943008092431	2380.882624576916	52.85600903353325	974.785094697027	2354.409586448211	39.02401189686904	875.2315553615731	2042.272126988342	976.9463042597143	970.248021456508	2247.289768662247	165.7493604494946	880.0775944934346	2202.269321217728	166.0717123077018	903.1929684445871	2243.599479030586	244.3003273806297	863.5679548684166	2197.36924030764	249.0168126614183	889.8022699935532	2233.969652253256	603.2316787586159	838.5748334027008	2174.550322425831	578.6441895354181	873.0303028228265	2182.415617487326	699.7079806203299	823.7114235525953	2126.064880795875	676.7813226566067	856.0251260939982	2207.873108257186	925.3411641323568	1100.99012156774	1712.794859399308	320.712815185212	1037.583134614736	1685.117551889374	497.9618875848939	1015.071236090933	1689.323421480181	466.0762494217647	1059.104524714455	1727.227763868441	482.0584491056416	1023.397758487953	2165.562846521388	994.4584521062243	1141.672960785074	1672.812649460648	283.9361165866629	996.6559615310484	1651.267846830811	319.5068454878043	1085.79836042453	2048.578038928054	972.1590261021361	1055.739400490416	1802.358896118071	438.3234864892098	1084.078111983255	1805.464117330243	473.6387183691685	1043.201230103269	1879.891083643263	455.8165074636152	1102.064179455038	1882.121598081791	488.5337141071439	1059.726727799229	2120.810409088027	544.882167645421	1145.296398674285	2068.864141121618	545.7138535609549	1092.489683535708	2102.906618968183	652.4470987127447	1162.794242742934	2050.858225471201	652.0686956531058	1114.796388872323	
2817	18.77333333333333	2203.737529834201	944.4445855025368	911.8510614750575	2144.061136536505	29.73134576015746	930.9262272952761	2177.696011295105	48.05257758351314	891.1820914868841	2155.400521798269	75.95594321848841	932.6403864537388	2138.279741556076	998.0145828059771	858.627714029617	2358.2026480407	49.22172345172777	976.290810849267	2331.207499972409	38.41591689548271	876.1294905039155	2039.557664613552	972.5453431046756	970.8661423529834	2230.753966766735	163.3350661711367	883.00668525271	2185.389232112465	166.1626384462128	905.3031315081923	2231.339147033095	241.9536096068228	865.9634871028989	2185.016579826181	249.2402540862273	891.4515605819563	2232.083386646172	600.1464105402453	838.8112741165919	2172.72521104471	575.4669383300206	873.3810182800846	2180.087064509921	696.3378879714353	823.3680262841274	2123.745082278992	673.2880548400701	855.6570098062447	2206.10783734474	919.9623103274397	1100.381924851559	1725.125668988052	324.3555160210493	1039.932760668916	1700.54943855657	501.8349622439782	1013.367183665224	1704.58517422472	470.9973253520545	1058.324100360514	1742.350702691446	485.2615092864444	1021.744080772949	2163.429182887371	987.8875683401454	1142.209156947939	1683.864474963629	287.1373185562225	1000.641603607388	1664.230728865567	325.6296609958388	1089.285947100402	2046.002169760285	966.7489846732426	1055.81012853526	1816.822465352494	439.8221924638278	1084.197769524769	1820.767744054177	475.3007424507177	1043.556297200842	1894.863630959891	455.6029242959169	1102.258558746187	1897.81588656403	488.2588753749979	1059.952697396849	2130.563581343805	539.2659242740749	1145.537990044273	2078.349010895115	537.9776709075958	1093.031482151328	2108.863863128723	646.2330662440096	1162.63258999652	2056.807183649703	643.7729332334524	1114.779600172443	
